FFmpeg version SVN-r25716, Copyright (c) 2000-2010 the FFmpeg developers  built on Nov 10 2010 12:23:18 with gcc 4.1.2 20080704 (Red Hat 4.1.2-48)  configuration: --enable-libmp3lame --enable-shared --disable-mmx --arch=x86_64  libavutil     50.33. 0 / 50.33. 0  libavcore      0.12. 1 /  0.12. 1  libavcodec    52.94. 4 / 52.94. 4  libavformat   52.84. 0 / 52.84. 0  libavdevice   52. 2. 2 / 52. 2. 2  libavfilter    1.59. 0 /  1.59. 0  libswscale     0.12. 0 /  0.12. 0Seems stream 0 codec frame rate differs from container frame rate: 1000.00 (1000/1) -> 12.00 (12/1)Input #0, mov,mp4,m4a,3gp,3g2,mj2, from '/RAID10/data/converted_video_files/10723.mov':  Metadata:    major_brand     : qt      minor_version   : 537199360    compatible_brands: qt    Duration: 00:00:11.66, start: 0.000000, bitrate: 15475 kb/s    Stream #0.0(eng): Video: mpeg4, yuv420p, 678x518 [PAR 1:1 DAR 339:259], 15474 kb/s, 12 fps, 12 tbr, 600 tbn, 1k tbc[buffer @ 0x176929b0] w:678 h:518 pixfmt:yuv420pOutput #0, flv, to '/RAID10/data/converted_video_files/10723.flv':  Metadata:    encoder         : Lavf52.84.0    Stream #0.0(eng): Video: flv, yuv420p, 678x518 [PAR 1:1 DAR 339:259], q=2-31, 600 kb/s, 1k tbn, 24 tbcStream mapping:  Stream #0.0 -> #0.0Press [q] to stop encodingframe=   22 fps=  0 q=31.0 size=     804kB time=1.79 bitrate=3674.7kbits/s    frame=   47 fps= 45 q=31.0 size=     977kB time=3.87 bitrate=2065.7kbits/s    frame=   74 fps= 47 q=31.0 size=    1183kB time=6.12 bitrate=1583.0kbits/s    frame=   93 fps= 45 q=31.0 size=    1324kB time=7.71 bitrate=1406.5kbits/s    frame=  119 fps= 46 q=31.0 size=    1525kB time=9.87 bitrate=1265.6kbits/s    frame=  140 fps= 46 q=31.0 Lsize=    1717kB time=11.62 bitrate=1210.3kbits/s    video:1715kB audio:0kB global headers:0kB muxing overhead 0.139507%